<svg width="50" height="50" viewBox="0 0 50 50" fill="none" xmlns="http://www.w3.org/2000/svg">
<rect width="50" height="50" rx="25" fill="#61A663"/>
<path d="M23.3018 15.4282L24.3857 14.3442C24.8447 13.8853 25.5869 13.8853 26.041 14.3442L35.5332 23.8315C35.9922 24.2905 35.9922 25.0327 35.5332 25.4868L26.041 34.979C25.582 35.438 24.8398 35.438 24.3857 34.979L23.3018 33.895C22.8379 33.4312 22.8477 32.6743 23.3213 32.2202L29.2051 26.6147H15.1719C14.5225 26.6147 14 26.0923 14 25.4429V23.8804C14 23.231 14.5225 22.7085 15.1719 22.7085H29.2051L23.3213 17.103C22.8428 16.6489 22.833 15.8921 23.3018 15.4282Z" fill="white"/>
</svg>
