<svg width="50" height="50" viewBox="0 0 50 50" fill="none" xmlns="http://www.w3.org/2000/svg">
<rect width="50" height="50" rx="25" fill="#61A663"/>
<path d="M37.0396 13H34.7246C34.6453 12.9999 34.5667 13.0159 34.4938 13.0471C34.4208 13.0783 34.3549 13.1239 34.3001 13.1813C34.2453 13.2387 34.2028 13.3067 34.175 13.381C34.1473 13.4553 34.1349 13.5345 34.1387 13.6138L34.334 17.6548C33.1984 16.3166 31.7849 15.242 30.1919 14.5056C28.5988 13.7692 26.8644 13.3887 25.1094 13.3906C18.4365 13.3906 12.9951 18.8364 13 25.5093C13.0049 32.1929 18.4248 37.6094 25.1094 37.6094C28.1079 37.6136 31.0006 36.5011 33.2236 34.4888C33.283 34.4356 33.3309 34.3709 33.3645 34.2986C33.398 34.2263 33.4164 34.1479 33.4186 34.0683C33.4208 33.9886 33.4067 33.9093 33.3772 33.8353C33.3477 33.7613 33.3034 33.694 33.2471 33.6377L31.5869 31.9775C31.4818 31.8725 31.3408 31.8113 31.1923 31.8063C31.0438 31.8013 30.899 31.8529 30.7871 31.9507C29.4753 33.1048 27.8429 33.8317 26.1075 34.0344C24.3721 34.237 22.6161 33.9059 21.0736 33.0852C19.5312 32.2644 18.2756 30.993 17.4741 29.4405C16.6727 27.8879 16.3636 26.1279 16.5879 24.3951C16.8123 22.6624 17.5595 21.0392 18.7299 19.7419C19.9003 18.4446 21.4383 17.5349 23.139 17.1341C24.8396 16.7332 26.622 16.8603 28.2485 17.4983C29.8751 18.1363 31.2686 19.2549 32.2432 20.7051L27.2856 20.4673C27.2064 20.4635 27.1272 20.4759 27.0529 20.5036C26.9785 20.5314 26.9106 20.574 26.8532 20.6287C26.7958 20.6835 26.7502 20.7494 26.719 20.8224C26.6878 20.8953 26.6718 20.9739 26.6719 21.0532V23.3682C26.6719 23.5236 26.7336 23.6726 26.8435 23.7825C26.9534 23.8924 27.1024 23.9541 27.2578 23.9541H37.0396C37.195 23.9541 37.344 23.8924 37.4539 23.7825C37.5638 23.6726 37.6255 23.5236 37.6255 23.3682V13.5859C37.6255 13.4305 37.5638 13.2815 37.4539 13.1716C37.344 13.0617 37.195 13 37.0396 13V13Z" fill="white"/>
</svg>
